<svg width="73" height="59" viewBox="0 0 73 59" fill="none" xmlns="http://www.w3.org/2000/svg">
<mask id="mask0_32_49" style="mask-type:luminance" maskUnits="userSpaceOnUse" x="0" y="0" width="73" height="59">
<path d="M0 0.0449829H72.3591V58.628H0V0.0449829Z" fill="white"/>
</mask>
<g mask="url(#mask0_32_49)">
<path fill-rule="evenodd" clip-rule="evenodd" d="M72.3609 39.0251H56.5172C57.4172 42.2709 61.9359 43.0906 61.9359 43.0906C49.0031 56.4955 36.1781 58.6407 36.1781 58.6407C36.1781 58.6407 23.3578 56.4955 10.425 43.0906C10.425 43.0906 14.9391 42.2709 15.8437 39.0251H0V20.1964H15.8953C15.8062 17.6672 12.5391 16.4588 12.5391 16.4588V9.94833C30.2906 8.9788 36.1781 0.046875 36.1781 0.046875C36.1781 0.046875 42.0703 8.9788 59.8172 9.94833V16.4588C59.8172 16.4588 56.5547 17.6672 56.4609 20.1964H72.3609V39.0251ZM51.5672 39.0251H20.7937C20.5172 40.196 19.6969 42.0836 17.2547 43.5449C17.2547 43.5449 25.4391 51.0249 36.1781 53.7227C46.9219 51.0249 55.1062 43.5449 55.1062 43.5449C52.6641 42.0836 51.8437 40.196 51.5672 39.0251ZM20.7328 20.1964H51.6234C51.6844 19.1566 52.1812 16.7304 55.1719 13.6907C55.1719 13.6907 45.9516 14.1778 36.1781 6.90389C26.4094 14.1778 17.1844 13.6907 17.1844 13.6907C20.175 16.7304 20.6719 19.1566 20.7328 20.1964ZM4.46719 34.6083H67.8891V24.6132H4.46719V34.6083Z" fill="#0A0B09"/>
</g>
</svg>
